Simulation
nRows=48
nColumns=15
endheader
time  TH_x TH_y TH_z SC_y  SC_z  SC_x  AC_y  AC_z  AC_x  GH_y  GH_z  GH_yy  EL_x  PS_y
0.595  0.000000  0.000000  0.000000  -36.95587684407811  3.5380166399054804  5.230974530789374  55.90561858247071  8.158759964907476  -6.734217209946623  -3.974516292818474  35.373623305479136  7.360556585962964  24.32867206165188  0.000000
0.6069  0.000000  0.000000  0.000000  -37.118593456647396  3.6557796609993685  5.420488346016503  55.98916501552249  8.25488749709256  -6.685306022119149  -3.696514293182842  36.12028133164731  6.816424092322156  24.173826414693604  0.000000
0.6187999999999999  0.000000  0.000000  0.000000  -37.291992733439436  3.781182445046005  5.617695915846416  56.04220537367394  8.342469564196161  -6.630176659994107  -3.406355759007307  36.844963563807255  6.288546949392369  24.01216523223691  0.000000
0.6306999999999999  0.000000  0.000000  0.000000  -37.46076874490547  3.9122027810001905  5.819749107715888  56.120980956528236  8.431812473972567  -6.577232785487762  -3.1016718492313267  37.54489021927351  5.774586066835586  23.844544742497938  0.000000
0.6426  0.000000  0.000000  0.000000  -37.639902504364066  4.049647154535705  6.026780275068958  56.16999392093118  8.516001630455836  -6.516672478477232  -2.7838067254272683  38.220738933151246  5.277060373784775  23.672164713324356  0.000000
0.6545  0.000000  0.000000  0.000000  -37.81412310344772  4.190192958390475  6.236110133135122  56.24601025245311  8.605141296557093  -6.457970045617034  -2.4493847971527525  38.871359368980194  4.793867569946597  23.495976291795934  0.000000
0.6664  0.000000  0.000000  0.000000  -37.99796196489366  4.334232129759309  6.448783081359737  56.29323652226188  8.69194787401837  -6.392974172251242  -2.098340121065657  39.497525892363534  4.325387747552675  23.31753971805296  0.000000
0.6782999999999999  0.000000  0.000000  0.000000  -38.17528854088205  4.4779904903273575  6.660597914482171  56.36861016803324  8.787915830014597  -6.330409664324588  -1.727801575084065  40.09810712177883  3.8705870061932597  23.137595613149948  0.000000
0.6901999999999999  0.000000  0.000000  0.000000  -38.360379967129106  4.621594741070664  6.874169467221783  56.416059084993506  8.881712952912881  -6.263792259539181  -1.3363248862648631  40.67642755956226  3.42845509299749  22.95777560257649  0.000000
0.7021  0.000000  0.000000  0.000000  -38.53755099906523  4.760882601120132  7.087626927480893  56.49257370868765  8.984526599169033  -6.201527061754489  -0.9208482336392149  41.229267923940675  2.998190562457245  22.779486464795728  0.000000
0.714  0.000000  0.000000  0.000000  -38.7206245559004  4.895965630276738  7.303162420344292  56.543246618248475  9.085077447454209  -6.137616618945842  -0.4799371542799557  41.76039818318876  2.5785984309848664  22.60391527545111  0.000000
0.7259  0.000000  0.000000  0.000000  -38.89304558053497  5.023750511133908  7.516287026703661  56.62404494403948  9.195405582064433  -6.078687545707353  -0.008543769169549121  42.267604475331815  2.1667002761103666  22.432794129505364  0.000000
0.7377999999999999  0.000000  0.000000  0.000000  -39.0684452369283  5.144916485937896  7.730015751113  56.68128819568522  9.303030353336963  -6.018692824531193  0.494236375924218  42.755650141894  1.7618647032135253  22.266006950480257  0.000000
0.7496999999999999  0.000000  0.000000  0.000000  -39.228863946796636  5.255057166229317  7.9397704813391705  56.770666072921195  9.421522126243625  -5.964469677262055  1.0316234959115764  43.22261962979799  1.3626990099068708  22.106901771326278  0.000000
0.7615999999999999  0.000000  0.000000  0.000000  -39.38626646010209  5.35569503324746  8.149775430597796  56.83827684461904  9.533829889487022  -5.909679189003429  1.6054103319098423  43.67700794590036  0.9659541123372474  21.951537827869707  0.000000
0.7735  0.000000  0.000000  0.000000  -39.523822528431545  5.441928821781573  8.361967876878465  56.938877284099355  9.652105098675316  -5.859673272567031  2.2232191258661467  44.11559097649657  0.5697063709125278  21.80448019476661  0.000000
0.7854  0.000000  0.000000  0.000000  -39.65302465683682  5.517439189678123  8.579386165757484  57.021531712661805  9.762881484961882  -5.808443156968409  2.8902136224187447  44.54635112243922  0.1643848153726366  21.66839684564769  0.000000
0.7972999999999999  0.000000  0.000000  0.000000  -39.7557592145559  5.582657217173352  8.803032139019262  57.144515916262  9.877029660510228  -5.760488903803303  3.6204039521318148  44.968836737010434  -0.25574371847655436  21.542658774115168  0.000000
0.8091999999999999  0.000000  0.000000  0.000000  -39.841492996705796  5.641771041673851  9.03818140033275  57.25342010820921  9.976991005306138  -5.709143670573479  4.417264543176922  45.397246413227215  -0.69772720209068  21.433381686587143  0.000000
0.8210999999999999  0.000000  0.000000  0.000000  -39.8938391680801  5.696946638920579  9.29273957684639  57.40695716697229  10.071417763172214  -5.658466614817978  5.29589578665362  45.830083423140486  -1.1662591522273522  21.34090467950583  0.000000
0.833  0.000000  0.000000  0.000000  -39.92666869100556  5.757695328346901  9.571037212049301  57.56285104321661  10.140363951636406  -5.593820128530465  6.248835927229691  46.284394510659425  -1.6597378392630222  21.269419531891447  0.000000
0.8449  0.000000  0.000000  0.000000  -39.92847746797677  5.8270040332289845  9.877786060764796  57.77533881162247  10.192463757683871  -5.515974703336845  7.303107849696933  46.76518357430991  -2.1915932633206188  21.219737281521695  0.000000
0.8567999999999999  0.000000  0.000000  0.000000  -39.91480478351764  5.914643282637795  10.219556609921046  58.018699126664075  10.203115280106358  -5.400090138313352  8.417125996534883  47.29324159498854  -2.7330557095768793  21.19313580533302  0.000000
0.8686999999999999  0.000000  0.000000  0.000000  -39.87237867402698  6.025251760014122  10.603704794148577  58.34746655930619  10.182106978083855  -5.253748735010193  9.614843168425786  47.87092207561089  -3.304319348233608  21.18836459402731  0.000000
0.8805999999999999  0.000000  0.000000  0.000000  -39.818217253058464  6.1726225666121035  11.04496453745493  58.72317726107222  10.087675256907298  -5.045225408215245  10.84780667617061  48.52585134073851  -3.8661441541662054  21.208904695042325  0.000000
0.8925  0.000000  0.000000  0.000000  -39.74142819673479  6.36768306275477  11.544123632053667  59.21588929642555  9.932608571606883  -4.77771902697792  12.109848271476746  49.25749735198023  -4.420014779050253  21.247448034577715  0.000000
0.9044  0.000000  0.000000  0.000000  -39.64885150438502  6.625382513860307  12.122006827287272  59.73806314207283  9.672387506553815  -4.442356755950112  13.388079912508232  50.08981728009918  -4.96074408816833  21.314139229224132  0.000000
0.9162999999999999  0.000000  0.000000  0.000000  -39.53005857438062  6.958556007491264  12.765698847074662  60.361146887701445  9.32136804276336  -4.024028173852547  14.640027475547496  51.023391070347394  -5.448205231191013  21.390031510983544  0.000000
0.9281999999999999  0.000000  0.000000  0.000000  -39.39532096251006  7.372461550853116  13.484624501142257  61.001528548107274  8.844933603599634  -3.5418516345796482  15.857649105902258  52.087959983432576  -5.9008761366761044  21.4730897373453  0.000000
0.9400999999999999  0.000000  0.000000  0.000000  -39.2527023111513  7.900265575025074  14.257690930908108  61.67804059258799  8.244640711855197  -2.914959247250043  16.983938905851183  53.26814222134614  -6.204393027592982  21.581813156065515  0.000000
0.952  0.000000  0.000000  0.000000  -39.12650234465227  8.535801202537089  15.075492294895922  62.36637220591224  7.521338676646459  -2.287995874716023  18.03701334042921  54.61389580372653  -6.455312535991109  21.65103782698484  0.000000
0.9639  0.000000  0.000000  0.000000  -38.96543773301367  9.144569576259169  15.920463381260518  63.04922651911504  6.677961919048141  -1.5962590566698447  18.84097882863394  56.1348206795257  -6.46632678767353  21.684719243909804  0.000000
0.9757999999999999  0.000000  0.000000  0.000000  -38.79659776164072  9.703308203383445  16.76819560918906  63.63788664943327  5.8364219752429465  -0.9490642164420867  19.43650873374181  57.78534267160949  -6.27672763139633  21.646886587434278  0.000000
0.9876999999999999  0.000000  0.000000  0.000000  -38.58268863496318  10.231160128552705  17.513120205626127  64.24464881899367  5.034626879510858  -0.3766254262979929  19.722343273698296  59.63664093194538  -5.883222970176266  21.482538653069152  0.000000
0.9995999999999999  0.000000  0.000000  0.000000  -38.32101577237607  10.754288702695472  18.19544507131887  64.5793222695758  4.243208077669226  0.2125150322950737  19.744314896699542  61.65842605693884  -5.193248909411426  21.20294447728122  0.000000
1.0114999999999998  0.000000  0.000000  0.000000  -37.969664310290625  11.122355366825246  18.945119836664624  65.023181343765  3.5226340549859314  0.43991595979066755  19.35801315765258  63.872430746148765  -4.308471776774636  20.493772265565326  0.000000
1.0233999999999999  0.000000  0.000000  0.000000  -37.61402887526716  11.682606622518856  20.016980737990558  64.6807037079443  2.474357328443565  0.5349748263889388  18.920561738483084  66.19967757773185  -2.867966086974956  19.949287189551843  0.000000
1.0352999999999999  0.000000  0.000000  0.000000  -37.617570251304315  13.362133568709229  20.852905635133748  63.52081661745464  1.3216548773514558  0.3426018511852304  18.78885302768809  68.71073068392265  -0.5503199594136636  19.705701685053615  0.000000
1.0472  0.000000  0.000000  0.000000  -38.118547858772054  15.354151468009695  20.89548893907151  64.23453383786475  0.7518718530813072  -1.0506702865061632  17.52826859989809  71.75505667942767  1.740887465977599  17.94010258314656  0.000000
1.0591  0.000000  0.000000  0.000000  -39.824976380933904  14.676370202810084  21.09286137189439  67.17215401685333  0.603832053546405  -3.2350064350332977  16.011710876314698  75.34045093432496  3.0493190889397366  13.697503075275023  0.000000
1.071  0.000000  0.000000  0.000000  -44.84176228426151  8.585196394121917  22.322192174638115  69.81226774910995  -0.05810049148551727  -3.2586471979518588  17.383417888822517  79.80280073899151  4.275979101054155  8.852724702177383  0.000000
1.0829  0.000000  0.000000  0.000000  -50.68887700449496  -0.6469091535720195  22.793172179336782  72.63009926069039  -1.4147398305214356  -2.2047205451447103  19.957174998042817  85.65761258215569  6.543611093731017  1.8030430094458005  0.000000
1.0948  0.000000  0.000000  0.000000  -44.70012452927605  0.04953055605571221  22.772378735184375  73.55270522484668  -3.4828991094617603  -7.338233937578112  15.168091799105685  90.07351827891543  6.80487945596517  -19.821336422937904  0.000000
1.1067  0.000000  0.000000  0.000000  -25.170857509419502  12.903538581735065  25.63355122033313  65.38833620893277  -6.773207851415814  -15.107066561863155  2.6968755645700337  88.90538635925085  -2.985679855698717  -47.204979931562946  0.000000
1.1185999999999998  0.000000  0.000000  0.000000  -3.2541069003759344  25.321083370694613  32.02548135876674  40.28404301511286  -2.3207382251193107  -17.50316441348493  -5.981366888114235  80.95167094558903  -16.560357537223677  -44.236570149341176  0.000000
1.1304999999999998  0.000000  0.000000  0.000000  10.853082102750594  28.47175708492137  33.02892124801152  16.3937838353733  8.947577554539992  -18.705316055148895  -5.175901432468677  76.52311879511737  -18.44106821686237  -28.620122055318316  0.000000
1.1423999999999999  0.000000  0.000000  0.000000  14.01253227942615  27.177892350224056  28.21667560215267  9.664286791363406  14.52321169221164  -20.653640421028374  -1.741012022034102  75.9239739514085  -13.921163775737442  -20.363359080916627  0.000000
1.1542999999999999  0.000000  0.000000  0.000000  11.101772368484264  29.324293406807676  28.023426286249613  7.5071680975133095  16.947923039876432  -19.04393072566579  0.368261396589417  72.18706257245549  -12.170379339340174  -8.082413288975848  0.000000
